<svg xmlns="http://www.w3.org/2000/svg" width="480mm" height="330mm" viewBox="0 0 480 330"><rect x="0" y="0" width="480" height="330" fill="white" stroke="#333" stroke-width="0.5"/><rect x="0.0" y="0.0" width="20.0" height="330.0" fill="#ccc" opacity="0.4"/><path d="M 2 5 L 8 5 M 5 2 L 5 8" stroke="#000" stroke-width="0.5"/><path d="M 472 5 L 478 5 M 475 2 L 475 8" stroke="#000" stroke-width="0.5"/><path d="M 2 325 L 8 325 M 5 322 L 5 328" stroke="#000" stroke-width="0.5"/><path d="M 472 325 L 478 325 M 475 322 L 475 328" stroke="#000" stroke-width="0.5"/><rect x="20.0" y="5.0" width="140.0" height="90.0" fill="none" stroke="#3da9fc" stroke-dasharray="1.5,1.5" stroke-width="0.6"/><rect x="165.0" y="5.0" width="140.0" height="90.0" fill="none" stroke="#3da9fc" stroke-dasharray="1.5,1.5" stroke-width="0.6"/><rect x="310.0" y="5.0" width="140.0" height="90.0" fill="none" stroke="#3da9fc" stroke-dasharray="1.5,1.5" stroke-width="0.6"/><text x="90.0" y="50.0" text-anchor="middle" dominant-baseline="middle" font-family="Arial" font-size="5mm">In loving memory 0</text><text x="235.0" y="50.0" text-anchor="middle" dominant-baseline="middle" font-family="Arial" font-size="5mm">In loving memory 1</text><text x="380.0" y="50.0" text-anchor="middle" dominant-baseline="middle" font-family="Arial" font-size="5mm">In loving memory 2</text></svg>